<?xml version="1.0" standalone="no"?>
<!DOCTYPE svg PUBLIC "-//W3C//DTD SVG 20010904//EN"
 "http://www.w3.org/TR/2001/REC-SVG-20010904/DTD/svg10.dtd">
<svg version="1.0" xmlns="http://www.w3.org/2000/svg"
 width="350.000000pt" height="350.000000pt" viewBox="0 0 350.000000 350.000000"
 preserveAspectRatio="xMidYMid meet">
<metadata>
Created by potrace 1.14, written by Peter Selinger 2001-2017
</metadata>
<g transform="translate(0.000000,350.000000) scale(0.100000,-0.100000)"
fill="#000000" stroke="none">
<path d="M1033 2014 c-3 -9 -1 -24 6 -33 38 -53 65 -129 69 -202 5 -87 -12
-157 -61 -257 -39 -78 -31 -91 40 -72 141 38 303 169 239 193 -7 3 -28 -9 -46
-28 -35 -36 -106 -73 -118 -61 -4 4 -7 76 -7 159 0 135 -2 157 -22 200 l-22
47 43 -30 c101 -69 171 -166 232 -325 12 -30 30 -55 46 -64 23 -13 28 -13 53
3 l28 18 -5 109 c-4 75 -2 113 6 125 23 31 37 -10 47 -138 10 -135 20 -181 45
-209 23 -25 76 -25 99 1 16 18 17 29 5 169 -10 121 -10 159 0 195 14 50 42 81
65 73 12 -5 15 -33 14 -179 -1 -176 9 -250 37 -294 14 -20 24 -24 65 -24 41 0
51 4 65 25 15 24 16 41 4 193 -14 198 -12 261 12 276 13 8 22 6 37 -8 20 -18
21 -30 21 -178 0 -171 9 -212 51 -242 37 -25 90 -20 161 17 79 41 166 105 201
147 31 36 36 94 12 139 -19 38 -132 114 -224 151 -67 28 -76 29 -90 15 -20
-19 -11 -27 68 -59 76 -31 188 -101 201 -127 6 -10 10 -31 10 -48 0 -25 -8
-37 -41 -61 -57 -41 -144 -72 -193 -68 -33 2 -44 9 -62 36 -30 43 -44 114 -44
215 0 109 -21 147 -80 147 -81 0 -105 -62 -97 -245 8 -180 -10 -262 -50 -223
-14 14 -16 45 -16 214 0 193 0 198 -23 221 -16 15 -35 23 -59 23 -81 0 -110
-87 -99 -299 6 -114 5 -131 -8 -131 -24 0 -28 22 -39 175 -5 77 -12 147 -15
157 -3 10 -19 25 -35 34 -25 12 -34 13 -57 2 -42 -20 -52 -65 -45 -197 7 -125
-3 -139 -32 -48 -33 99 -78 170 -165 258 -68 69 -96 90 -143 107 -69 26 -76
27 -84 6z"/>
<path d="M2497 1910 c-49 -39 -43 -106 12 -135 38 -19 75 -11 101 22 23 29 25
51 9 86 -21 47 -80 60 -122 27z m74 -82 c11 -4 11 -8 2 -18 -18 -19 -62 -4
-69 25 -9 37 4 46 29 21 13 -13 30 -25 38 -28z"/>
</g>
</svg>
